<svg xmlns="http://www.w3.org/2000/svg" xmlns:shaper="http://www.shapertools.com/namespaces/shaper" viewBox="-3 -3 22.5 22.5" width="90%">
  <g transform="translate(0, 16.5) scale(1 -1)">
    <path style="fill: black; stroke: black; stroke-width: 1px; opacity: 1.0; vector-effect: non-scaling-stroke;" d="M 0.000000 12.585786 L 0.000000 1.750000 A 1.750000 1.750000 0 0 1 1.750000 0.000000 L 12.585786 0.000000 C 14.085786 0.000000 14.792893 1.707107 13.292893 3.207107 L 3.207107 13.292893 C 1.707107 14.792893 0.000000 14.085786 0.000000 12.585786"/>
    <path style="fill: none; stroke: blue; stroke-width: 1px; opacity: 1.0; vector-effect: non-scaling-stroke;" d="M 11.835786 1.750000 L 1.750000 1.750000 L 1.750000 11.835786 L 11.835786 1.750000"/>
    <g class="Triangle">
      <path d="M 0 0 L 0 16.500000 L 16.500000 0 z" style="fill: none; stroke: blue; stroke-width: 1px; opacity: 1.0; vector-effect: non-scaling-stroke;"/>
    </g>
    <g class="Triangle">
      <path d="M 1.000000 1.000000 L 1.000000 14.085786 L 14.085786 1.000000 z" style="fill: none; stroke: blue; stroke-width: 1px; opacity: 1.0; vector-effect: non-scaling-stroke;"/>
    </g>
    <g class="Leg">
      <rect x="2.5" y="1.0" width="1.5" height="1.5" style="fill: none; stroke: blue; stroke-width: 1px; opacity: 1.0; vector-effect: non-scaling-stroke;"/>
    </g>
    <g class="Leg">
      <rect x="1.0" y="2.5" width="1.5" height="1.5" style="fill: none; stroke: blue; stroke-width: 1px; opacity: 1.0; vector-effect: non-scaling-stroke;"/>
    </g>
    <g class="Leg">
      <rect x="11.085786437626904" y="1.0" width="1.5" height="1.5" style="fill: none; stroke: blue; stroke-width: 1px; opacity: 1.0; vector-effect: non-scaling-stroke;"/>
    </g>
    <g class="Leg">
      <rect x="1.0" y="11.085786437626904" width="1.5" height="1.5" style="fill: none; stroke: blue; stroke-width: 1px; opacity: 1.0; vector-effect: non-scaling-stroke;"/>
    </g>
    <g class="center_mark">
      <path d="M 3.150000 1.750000 L 3.250000 1.750000 L 3.250000 1.650000" style="fill: none; stroke: rgb(70 70 70); stroke-width: 1px; opacity: 1.0; vector-effect: non-scaling-stroke;"/>
      <circle cx="3.25" cy="1.75" r="0.1" style="fill: none; stroke: blue; stroke-width: 1px; opacity: 1.0; vector-effect: non-scaling-stroke;"/>
    </g>
    <g class="center_mark">
      <path d="M 1.650000 3.250000 L 1.750000 3.250000 L 1.750000 3.150000" style="fill: none; stroke: rgb(70 70 70); stroke-width: 1px; opacity: 1.0; vector-effect: non-scaling-stroke;"/>
      <circle cx="1.75" cy="3.25" r="0.1" style="fill: none; stroke: blue; stroke-width: 1px; opacity: 1.0; vector-effect: non-scaling-stroke;"/>
    </g>
    <g class="center_mark">
      <path d="M 11.735786 1.750000 L 11.835786 1.750000 L 11.835786 1.650000" style="fill: none; stroke: rgb(70 70 70); stroke-width: 1px; opacity: 1.0; vector-effect: non-scaling-stroke;"/>
      <circle cx="11.835786437626904" cy="1.75" r="0.1" style="fill: none; stroke: blue; stroke-width: 1px; opacity: 1.0; vector-effect: non-scaling-stroke;"/>
    </g>
    <g class="center_mark">
      <path d="M 1.650000 11.835786 L 1.750000 11.835786 L 1.750000 11.735786" style="fill: none; stroke: rgb(70 70 70); stroke-width: 1px; opacity: 1.0; vector-effect: non-scaling-stroke;"/>
      <circle cx="1.75" cy="11.835786437626904" r="0.1" style="fill: none; stroke: blue; stroke-width: 1px; opacity: 1.0; vector-effect: non-scaling-stroke;"/>
    </g>
  </g>
</svg>